# xmcd
#
# Track frame offsets: 
#        150
#        13143
#        26470
#        44912
#        56036
#        67166
#        80177
#        94453
#        112240
#        123876
#        136878
#        150759
#
# Disc length: 2172 seconds
#
# Revision: 6
# Processed by: cddbd v1.5.2PL0 Copyright (c) Steve Scherf et al.
# Submitted via: ExactAudioCopyFreeDBPlugin 1.0
#
DISCID=ac087a0c
DTITLE=Various Artist - Romantic Hits
DYEAR=2002
DGENRE=Pop
TTITLE0=Percy Sledge - When a man loves a woman
TTITLE1=Ben E. King - Stand by me
TTITLE2=José Feliciano - Che Sara
TTITLE3=Tom Jones - Green, Green grass of home (live)
TTITLE4=The Platters - Only you (and you alone)
TTITLE5=The Everly Brothers - All I have to do is dream (live)
TTITLE6=The Tremeloes - Silence is golden
TTITLE7=Smokie - If you think you know how to love me
TTITLE8=Tom Jones and Dionne Warwick - Endless love (live)
TTITLE9=Charlie Rich - The most beautiful girl
TTITLE10=Kool and the Gang - Cherish (live)
TTITLE11=The Three Degrees - When will I see you again?
EXTD=DRK 50 Jahre Vol. 3
EXTT0=
EXTT1=
EXTT2=
EXTT3=
EXTT4=
EXTT5=
EXTT6=
EXTT7=
EXTT8=
EXTT9=
EXTT10=
EXTT11=
PLAYORDER=
